PathFileType	4	(X/Y/Z)	c:/Users/goper/Files/vsCode/490R/osim_files/C07/C07_SSWS_04.trc
DataRate	CameraRate	NumFrames	NumMarkers	Units                	OrigDataRate	OrigDataStartFrame	OrigNumFrames
250.00	250.00	4	36	mm	250.0	1183	3153
                Frame#	Time	LPSIS			LASIS			LTH1			LTH2			LTH3			LTH4			LLFE			LMFE			LSH1			LSH2			LSH3			LSH4			LLMAL			LMMAL			LCAL			LMTP5			LTOE			LMTP1			RPSIS			RASIS			RTH1			RTH2			RTH3			RTH4			RLFE			RMFE			RSH1			RSH2			RSH3			RSH4			RLMAL			RMMAL			RCAL			RMTP1			RTOE			RMTP5		
		X1	Y1	Z1	X2	Y2	Z2	X3	Y3	Z3	X4	Y4	Z4	X5	Y5	Z5	X6	Y6	Z6	X7	Y7	Z7	X8	Y8	Z8	X9	Y9	Z9	X10	Y10	Z10	X11	Y11	Z11	X12	Y12	Z12	X13	Y13	Z13	X14	Y14	Z14	X15	Y15	Z15	X16	Y16	Z16	X17	Y17	Z17	X18	Y18	Z18	X19	Y19	Z19	X20	Y20	Z20	X21	Y21	Z21	X22	Y22	Z22	X23	Y23	Z23	X24	Y24	Z24	X25	Y25	Z25	X26	Y26	Z26	X27	Y27	Z27	X28	Y28	Z28	X29	Y29	Z29	X30	Y30	Z30	X31	Y31	Z31	X32	Y32	Z32	X33	Y33	Z33	X34	Y34	Z34	X35	Y35	Z35	X36	Y36	Z36

1183	4.72800	-1257.36816	1002.81305	336.90411	-1433.75793	989.59540	404.81009	-1392.38330	789.48871	458.64392	-1409.33972	712.20404	459.20047	-1427.48120	639.37268	450.02505	-1485.26038	732.11896	437.89288	-1419.64404	512.21301	431.59811	-1418.77124	497.65509	310.18542	-1423.24329	316.30252	435.19165	-1417.41602	270.75009	417.24802	-1460.76978	330.65359	424.33160	-1467.21606	286.53879	415.36661	-1457.68396	98.53088	365.42587	-1485.92786	128.16362	298.94077	-1408.64429	43.88095	310.16132	-1585.97595	37.06797	397.51022	-1646.43567	52.71434	349.49884	-1619.51184	41.45393	295.49484	-1255.28186	999.29242	237.90671	-1409.50928	963.87469	151.17865	-1365.32312	807.21423	103.14137	-1374.10522	728.68365	96.99460	-1381.86194	646.87250	101.07925	-1446.65625	734.91290	125.46655	-1368.56409	474.56104	125.82892	-1383.09094	480.40359	242.08499	-1200.72217	402.10757	128.95757	-1180.34106	349.36948	128.27322	-1240.05151	355.01367	126.54482	-1204.92041	330.81757	135.48177	-1036.58203	265.97687	179.75162	-1066.66956	241.81311	254.40814	-987.08063	300.21683	235.64592	-1019.35425	94.34380	269.21588	-1031.15979	71.06729	219.11736	-994.44135	110.81992	163.84605
1184	4.73200	-1261.51709	1003.36896	337.42102	-1438.15344	989.94202	404.84879	-1395.69214	789.93591	459.09225	-1412.02405	712.47424	459.79178	-1429.81689	639.63910	450.83279	-1488.71741	732.30493	438.35883	-1421.68030	512.59814	431.64056	-1420.76819	497.83145	310.12177	-1424.23096	316.64923	435.20743	-1418.32166	271.02429	417.12598	-1462.15833	330.61243	424.04373	-1468.13892	286.60110	415.35873	-1457.88818	98.67790	365.37466	-1486.10510	128.15298	298.84271	-1408.68433	43.90164	310.18893	-1586.00916	37.08385	397.50317	-1646.43201	52.59414	349.44666	-1619.50757	41.32635	295.43042	-1259.25610	999.79865	238.52199	-1413.19934	964.70154	151.21019	-1370.54504	807.93427	103.17770	-1380.38403	729.48346	97.04530	-1389.11914	647.78711	101.05077	-1453.00659	736.44653	125.19527	-1378.58765	475.62961	125.45719	-1392.49341	481.43646	241.74030	-1211.06018	403.35907	128.15173	-1190.45239	350.69629	127.51687	-1250.37854	356.18591	125.82490	-1215.01941	332.20312	134.69876	-1046.02966	268.11380	178.71902	-1076.42163	243.05264	253.30702	-999.11359	303.37469	235.18504	-1026.07507	96.65926	268.05313	-1036.16663	73.46479	217.83641	-999.98364	114.01109	163.00832
1185	4.73600	-1265.84094	1003.93140	337.88736	-1442.59082	990.34296	404.90192	-1398.59717	790.23645	459.48743	-1414.69910	712.76776	460.34357	-1431.93848	639.68329	451.35324	-1491.26794	732.26764	438.67819	-1423.70898	512.90723	431.60727	-1423.19092	498.06113	310.24121	-1425.38818	317.11902	435.20679	-1419.15222	271.65897	417.43518	-1463.16406	331.13257	424.41278	-1469.20825	286.74759	415.40198	-1458.17651	98.89819	365.27097	-1486.29150	128.19591	298.76736	-1408.66785	43.97549	310.15402	-1586.08154	37.16843	397.50626	-1646.47095	52.54683	349.32413	-1619.53601	41.23550	295.39633	-1263.22351	1000.46472	239.00880	-1417.83276	965.56989	150.21028	-1375.71399	808.66260	103.23318	-1386.70764	730.43683	97.17050	-1396.32898	648.72498	101.04912	-1459.26392	738.13824	124.94357	-1388.39282	476.83899	125.06873	-1401.96899	482.53986	241.42668	-1221.30298	404.68774	127.32790	-1200.61462	352.11047	126.49690	-1260.24597	357.49017	125.18156	-1225.06812	333.54901	133.89780	-1055.46130	270.32236	177.69052	-1086.23987	244.41551	252.12875	-1010.93378	306.46771	234.63008	-1033.31274	99.01146	266.81903	-1041.62537	75.80769	216.53365	-1006.02216	117.18661	162.16908
1186	4.74000	-1270.00427	1004.55579	338.38400	-1446.96851	990.72638	405.06540	-1400.47437	790.25885	459.44388	-1417.42566	712.98657	460.87552	-1434.28418	639.88953	451.97345	-1493.97522	732.14978	438.91284	-1425.74536	513.16235	431.51132	-1424.33252	498.33765	310.05530	-1426.50867	317.55112	435.08197	-1420.08545	272.04398	417.21552	-1464.55029	331.04013	423.86734	-1470.29053	286.84897	415.38425	-1458.36121	99.03020	365.13925	-1486.42236	128.18910	298.62314	-1408.70251	44.03681	310.15509	-1586.18481	37.24190	397.50320	-1646.48767	52.52008	349.20132	-1619.53601	41.12304	295.36078	-1267.29956	1001.09167	239.52769	-1421.67444	966.45251	150.32394	-1381.13367	809.38989	103.28090	-1392.70947	731.22961	97.17965	-1403.16760	649.71820	100.96468	-1464.97034	739.76288	124.32632	-1398.13342	478.00317	124.64301	-1411.41052	483.72916	241.06912	-1231.20740	406.08340	126.69150	-1210.51965	353.47263	125.60402	-1270.27344	358.80096	124.55246	-1235.11023	334.86285	133.06223	-1064.99438	272.32599	176.87704	-1095.92334	245.82239	250.94403	-1022.60504	309.18799	234.24217	-1041.12939	101.18138	265.51346	-1047.96143	78.01908	215.15443	-1012.69501	120.17866	161.40579
